<svg xmlns="http://www.w3.org/2000/svg" viewBox="0 0 1024 1024"><path d="M512 64C264.6 64 64 264.6 64 512s200.6 448 448 448 448-200.6 448-448S759.4 64 512 64z m0 820c-205.4 0-372-166.6-372-372s166.6-372 372-372 372 166.6 372 372-166.6 372-372 372z" fill="currentColor"/><path d="M672 384c-12.4 0-24 2.8-34.4 7.8l-96.4-48.2c0.4-4.2 0.8-8.4 0.8-12.8 0-52.8-43.2-96-96-96s-96 43.2-96 96c0 4.4 0.4 8.6 0.8 12.8l-96.4 48.2C262.8 382.8 252 380 240 380c-41.8 0-76 34.2-76 76s34.2 76 76 76c12.4 0 24-2.8 34.4-7.8l96.4 48.2c-0.4 4.2-0.8 8.4-0.8 12.8 0 52.8 43.2 96 96 96s96-43.2 96-96c0-4.4-0.4-8.6-0.8-12.8l96.4-48.2c10.4 5 21.6 7.8 34.4 7.8 41.8 0 76-34.2 76-76s-34.2-76-76-76zM512 448c-17.6 0-32-14.4-32-32s14.4-32 32-32 32 14.4 32 32-14.4 32-32 32z" fill="currentColor"/></svg>
